HIERARCHY
ROOT reference
{
  OFFSET 0 0 0
  CHANNELS 6 Xposition Yposition Zposition Zrotation Xrotation Yrotation
  JOINT Hips
  {
    OFFSET 340.57 87.5694 214.797
    CHANNELS 3 Zrotation Xrotation Yrotation
    JOINT RightUpLeg
    {
      OFFSET -9.35418 -1.55218 -0.019184
      CHANNELS 3 Zrotation Xrotation Yrotation
      JOINT RightLeg
      {
        OFFSET -0.0482219 -41.8948 0.0725956
        CHANNELS 3 Zrotation Xrotation Yrotation
        JOINT RightFoot
        {
          OFFSET -1.00159 -42.3965 -1.97064
          CHANNELS 3 Zrotation Xrotation Yrotation
          End Site
          {
            OFFSET 0 -7.69 17.5
          }
        }
      }
    }
    JOINT LeftUpLeg
    {
      OFFSET 9.33628 -1.64535 -0.0795185
      CHANNELS 3 Zrotation Xrotation Yrotation
      JOINT LeftLeg
      {
        OFFSET 0.124871 -41.8725 -0.08325
        CHANNELS 3 Zrotation Xrotation Yrotation
        JOINT LeftFoot
        {
          OFFSET 0.728222 -40.8097 2.1196
          CHANNELS 3 Zrotation Xrotation Yrotation
          End Site
          {
            OFFSET 0 -7.69 17.5
          }
        }
      }
    }
    JOINT Spine
    {
      OFFSET -0.0135102 14.2943 0.0647361
      CHANNELS 3 Zrotation Xrotation Yrotation
      JOINT Spine1
      {
        OFFSET 0.0181502 9.72385 0.0148045
        CHANNELS 3 Zrotation Xrotation Yrotation
        JOINT Spine2
        {
          OFFSET 0.0557859 10.1166 -0.00979693
          CHANNELS 3 Zrotation Xrotation Yrotation
          JOINT Spine3
          {
            OFFSET 0.0359868 9.71757 0.00306838
            CHANNELS 3 Zrotation Xrotation Yrotation
            JOINT Neck
            {
              OFFSET 0.139197 10.3803 0.0501204
              CHANNELS 3 Zrotation Xrotation Yrotation
              JOINT Head
              {
                OFFSET 0.148012 9.47645 -0.000545472
                CHANNELS 3 Zrotation Xrotation Yrotation
                End Site
                {
                  OFFSET 0 15.95 0
                }
              }
            }
            JOINT RightShoulder
            {
              OFFSET -3.16276 6.92807 0.0312834
              CHANNELS 3 Zrotation Xrotation Yrotation
              JOINT RightArm
              {
                OFFSET -12.7681 0.0492996 0.0890957
                CHANNELS 3 Zrotation Xrotation Yrotation
                JOINT RightForeArm
                {
                  OFFSET -26.4761 -0.090776 0.147076
                  CHANNELS 3 Zrotation Xrotation Yrotation
                  JOINT RightHand
                  {
                    OFFSET -25.9655 0.0607057 -0.248467
                    CHANNELS 3 Zrotation Xrotation Yrotation
                    JOINT RightHandThumb1
                    {
                      OFFSET -2.48905 0.190105 3.12053
                      CHANNELS 3 Zrotation Xrotation Yrotation
                      JOINT RightHandThumb2
                      {
                        OFFSET -3.68274 0 0
                        CHANNELS 3 Zrotation Xrotation Yrotation
                        JOINT RightHandThumb3
                        {
                          OFFSET -2.55832 0 0
                          CHANNELS 3 Zrotation Xrotation Yrotation
                          End Site
                          {
                            OFFSET -2.194 0 0
                          }
                        }
                      }
                    }
                    JOINT RightInHandIndex
                    {
                      OFFSET -3.22368 0.508421 1.97842
                      CHANNELS 3 Zrotation Xrotation Yrotation
                      JOINT RightHandIndex1
                      {
                        OFFSET -5.21684 -0.091368 0.999158
                        CHANNELS 3 Zrotation Xrotation Yrotation
                        JOINT RightHandIndex2
                        {
                          OFFSET -3.61937 0 0
                          CHANNELS 3 Zrotation Xrotation Yrotation
                          JOINT RightHandIndex3
                          {
                            OFFSET -2.0521 0 0
                            CHANNELS 3 Zrotation Xrotation Yrotation
                            End Site
                            {
                              OFFSET -1.805 0 0
                            }
                          }
                        }
                      }
                    }
                    JOINT RightInHandMiddle
                    {
                      OFFSET -3.38211 0.517263 0.756737
                      CHANNELS 3 Zrotation Xrotation Yrotation
                      JOINT RightHandMiddle1
                      {
                        OFFSET -5.17411 -0.084 0.313895
                        CHANNELS 3 Zrotation Xrotation Yrotation
                        JOINT RightHandMiddle2
                        {
                          OFFSET -3.94947 0 0
                          CHANNELS 3 Zrotation Xrotation Yrotation
                          JOINT RightHandMiddle3
                          {
                            OFFSET -2.47579 0 0
                            CHANNELS 3 Zrotation Xrotation Yrotation
                            End Site
                            {
                              OFFSET -1.975 0 0
                            }
                          }
                        }
                      }
                    }
                    JOINT RightInHandRing
                    {
                      OFFSET -3.36516 0.537895 -0.128947
                      CHANNELS 3 Zrotation Xrotation Yrotation
                      JOINT RightHandRing1
                      {
                        OFFSET -4.63474 -0.022105 -0.478947
                        CHANNELS 3 Zrotation Xrotation Yrotation
                        JOINT RightHandRing2
                        {
                          OFFSET -3.44238 0 0
                          CHANNELS 3 Zrotation Xrotation Yrotation
                          JOINT RightHandRing3
                          {
                            OFFSET -2.3881 0 0
                            CHANNELS 3 Zrotation Xrotation Yrotation
                            End Site
                            {
                              OFFSET -1.857 0 0
                            }
                          }
                        }
                      }
                    }
                    JOINT RightInHandPinky
                    {
                      OFFSET -3.16105 0.469368 -1.20179
                      CHANNELS 3 Zrotation Xrotation Yrotation
                      JOINT RightHandPinky1
                      {
                        OFFSET -4.14105 -0.022105 -1.09053
                        CHANNELS 3 Zrotation Xrotation Yrotation
                        JOINT RightHandPinky2
                        {
                          OFFSET -2.75653 0 0
                          CHANNELS 3 Zrotation Xrotation Yrotation
                          JOINT RightHandPinky3
                          {
                            OFFSET -1.74189 0 0
                            CHANNELS 3 Zrotation Xrotation Yrotation
                            End Site
                            {
                              OFFSET -1.645 0 0
                            }
                          }
                        }
                      }
                    }
                  }
                }
              }
            }
            JOINT LeftShoulder
            {
              OFFSET 3.20588 6.97332 0.0254387
              CHANNELS 3 Zrotation Xrotation Yrotation
              JOINT LeftArm
              {
                OFFSET 12.8648 0.0341024 0.0247643
                CHANNELS 3 Zrotation Xrotation Yrotation
                JOINT LeftForeArm
                {
                  OFFSET 26.5059 -0.0470976 -0.0807017
                  CHANNELS 3 Zrotation Xrotation Yrotation
                  JOINT LeftHand
                  {
                    OFFSET 26.0013 -0.0100885 -0.0649647
                    CHANNELS 3 Zrotation Xrotation Yrotation
                    JOINT LeftHandThumb1
                    {
                      OFFSET 2.48905 0.190105 3.12053
                      CHANNELS 3 Zrotation Xrotation Yrotation
                      JOINT LeftHandThumb2
                      {
                        OFFSET 3.68274 0 0
                        CHANNELS 3 Zrotation Xrotation Yrotation
                        JOINT LeftHandThumb3
                        {
                          OFFSET 2.55832 0 0
                          CHANNELS 3 Zrotation Xrotation Yrotation
                          End Site
                          {
                            OFFSET 2.194 0 0
                          }
                        }
                      }
                    }
                    JOINT LeftInHandIndex
                    {
                      OFFSET 3.22368 0.508421 1.97842
                      CHANNELS 3 Zrotation Xrotation Yrotation
                      JOINT LeftHandIndex1
                      {
                        OFFSET 5.21684 -0.091368 0.999158
                        CHANNELS 3 Zrotation Xrotation Yrotation
                        JOINT LeftHandIndex2
                        {
                          OFFSET 3.61937 0 0
                          CHANNELS 3 Zrotation Xrotation Yrotation
                          JOINT LeftHandIndex3
                          {
                            OFFSET 2.0521 0 0
                            CHANNELS 3 Zrotation Xrotation Yrotation
                            End Site
                            {
                              OFFSET 1.805 0 0
                            }
                          }
                        }
                      }
                    }
                    JOINT LeftInHandMiddle
                    {
                      OFFSET 3.38211 0.517263 0.756737
                      CHANNELS 3 Zrotation Xrotation Yrotation
                      JOINT LeftHandMiddle1
                      {
                        OFFSET 5.17411 -0.084 0.313895
                        CHANNELS 3 Zrotation Xrotation Yrotation
                        JOINT LeftHandMiddle2
                        {
                          OFFSET 3.94947 0 0
                          CHANNELS 3 Zrotation Xrotation Yrotation
                          JOINT LeftHandMiddle3
                          {
                            OFFSET 2.47579 0 0
                            CHANNELS 3 Zrotation Xrotation Yrotation
                            End Site
                            {
                              OFFSET 1.975 0 0
                            }
                          }
                        }
                      }
                    }
                    JOINT LeftInHandRing
                    {
                      OFFSET 3.36516 0.537895 -0.128947
                      CHANNELS 3 Zrotation Xrotation Yrotation
                      JOINT LeftHandRing1
                      {
                        OFFSET 4.63474 -0.022105 -0.478947
                        CHANNELS 3 Zrotation Xrotation Yrotation
                        JOINT LeftHandRing2
                        {
                          OFFSET 3.44238 0 0
                          CHANNELS 3 Zrotation Xrotation Yrotation
                          JOINT LeftHandRing3
                          {
                            OFFSET 2.3881 0 0
                            CHANNELS 3 Zrotation Xrotation Yrotation
                            End Site
                            {
                              OFFSET 1.857 0 0
                            }
                          }
                        }
                      }
                    }
                    JOINT LeftInHandPinky
                    {
                      OFFSET 3.16105 0.469368 -1.20179
                      CHANNELS 3 Zrotation Xrotation Yrotation
                      JOINT LeftHandPinky1
                      {
                        OFFSET 4.14105 -0.022105 -1.09053
                        CHANNELS 3 Zrotation Xrotation Yrotation
                        JOINT LeftHandPinky2
                        {
                          OFFSET 2.75653 0 0
                          CHANNELS 3 Zrotation Xrotation Yrotation
                          JOINT LeftHandPinky3
                          {
                            OFFSET 1.74189 0 0
                            CHANNELS 3 Zrotation Xrotation Yrotation
                            End Site
                            {
                              OFFSET 1.645 0 0
                            }
                          }
                        }
                      }
                    }
                  }
                }
              }
            }
          }
        }
      }
    }
  }
}
MOTION
Frames: 2
Frame Time: 0.00833333
9.000000000000000000e+02 0.000000000000000000e+00 0.000000000000000000e+00 0.000000000000000000e+00 0.000000000000000000e+00 0.000000000000000000e+00 3.271737574545366289e+00 -5.159640506613021316e-01 -1.845956233572191607e+01 5.316147442779264765e+00 -9.923454936684789729e+00 2.771052131392126583e+00 2.059877154779182484e-01 4.169875963769764660e+00 2.063989856767419084e+00 4.481856274101602366e+00 -6.574899158313616709e+00 5.279928130610186621e+00 1.136006995373752559e+01 -5.803895523964501812e-01 6.440194935693398293e+00 -3.765194384066359756e+00 3.597909617421309214e+00 5.122614553994090159e+00 1.808254119915106761e+00 1.010201053215787459e+00 9.088412768194782387e+00 -2.662992822906962709e-01 -1.016654743681145723e+00 -8.078160269136350990e+00 -1.093151361441615788e-01 -4.126359758238687947e-01 -2.059489368935542242e+00 -1.529595704621893315e-01 -7.343299190596510595e-01 -3.120387883011489727e+00 -1.741587685128932472e-01 1.403271603707244297e-01 7.124144540937354941e-01 -6.552348034592866410e-01 9.103083472455680836e-02 9.260530590406549578e+00 -2.882790695280122772e+00 1.861100667172520318e+00 7.876208874991409203e+00 3.351531726800061950e+00 3.068272771754346984e+00 -5.014101321777777898e+00 5.563829215430557085e+00 -7.205848600320524433e+00 -1.544493274431906649e+01 8.272622889103004695e+00 -6.197903249962168459e+00 4.230393859716819804e+00 -7.854419083189006834e+00 -5.460650784841417860e+00 6.433612843592137587e+00 0.000000000000000000e+00 0.000000000000000000e+00 0.000000000000000000e+00 1.196168322619137497e-15 4.925291732043673837e-16 0.000000000000000000e+00 -6.429624158455013236e-17 2.039195325170336504e-15 0.000000000000000000e+00 7.849858140998954345e-16 -6.941444952283589163e-16 -6.064229414733004544e-16 0.000000000000000000e+00 0.000000000000000000e+00 0.000000000000000000e+00 0.000000000000000000e+00 -1.201141750133914177e-15 -6.613645859109176309e-16 0.000000000000000000e+00 -8.538090297315225711e-16 2.745223244524802293e-15 7.849858140998954345e-16 -6.941444952283589163e-16 -6.064229414733004544e-16 0.000000000000000000e+00 7.878343906469698234e-17 -4.472275882802340134e-15 0.000000000000000000e+00 5.710007981454608467e-16 -4.424490157798848030e-16 0.000000000000000000e+00 -2.597994926316774944e-16 3.020392896905709299e-15 7.849858140998954345e-16 -6.941444952283589163e-16 -6.064229414733004544e-16 0.000000000000000000e+00 0.000000000000000000e+00 0.000000000000000000e+00 0.000000000000000000e+00 -1.127667393657967460e-15 -4.053198005759685315e-16 0.000000000000000000e+00 -1.328037400852572029e-16 6.316294704086758678e-16 7.849858140998954345e-16 -6.941444952283589163e-16 -6.064229414733004544e-16 0.000000000000000000e+00 0.000000000000000000e+00 0.000000000000000000e+00 0.000000000000000000e+00 2.579260304733217272e-16 -2.501285037803004008e-15 0.000000000000000000e+00 1.844862268738289706e-15 4.564965594342159136e-15 3.789230347841323177e+00 2.385377221472942955e-01 -3.987744847891604216e+00 9.950106762100761060e+00 4.836546638761507921e+00 -1.152499988436651890e+01 4.690267252679012344e+00 2.973245490853843709e+00 2.237316238412669023e+01 -3.977104098424070866e+00 9.381714436996039241e-01 3.645536317333642806e+00 0.000000000000000000e+00 0.000000000000000000e+00 0.000000000000000000e+00 -5.437959904466830344e-16 -1.010910674036186085e-15 0.000000000000000000e+00 -4.191622092970834076e-16 -1.312783770266081123e-15 0.000000000000000000e+00 1.382785737289555193e-16 9.099483566522344810e-16 5.537882626238441502e-16 0.000000000000000000e+00 0.000000000000000000e+00 0.000000000000000000e+00 0.000000000000000000e+00 1.013518360124347404e-15 4.196735945250751344e-16 0.000000000000000000e+00 4.034024569932054414e-16 -4.458252831787299769e-15 1.382785737289555193e-16 9.099483566522344810e-16 5.537882626238441502e-16 0.000000000000000000e+00 -9.314831543689676060e-16 2.506366345907747378e-16 0.000000000000000000e+00 8.795637048085949922e-16 -4.280470390232135578e-16 0.000000000000000000e+00 1.574205658532188392e-15 -3.339597226129107046e-15 1.382785737289555193e-16 9.099483566522344810e-16 5.537882626238441502e-16 0.000000000000000000e+00 0.000000000000000000e+00 0.000000000000000000e+00 0.000000000000000000e+00 1.489312775333986381e-15 -1.611576412035504010e-15 0.000000000000000000e+00 1.384853408028882711e-15 -3.869107446627517806e-15 1.382785737289555193e-16 9.099483566522344810e-16 5.537882626238441502e-16 0.000000000000000000e+00 0.000000000000000000e+00 0.000000000000000000e+00 0.000000000000000000e+00 4.453973226276055124e-17 -2.858950447724659658e-15 0.000000000000000000e+00 -5.844133196063964050e-17 -1.041604644685499849e-15
9.000000000000000000e+02 0.000000000000000000e+00 0.000000000000000000e+00 0.000000000000000000e+00 0.000000000000000000e+00 0.000000000000000000e+00 3.285517325729381710e+00 -4.072680654533841205e-01 -1.820156769206468539e+01 4.831086724256866916e+00 -9.908096602853769141e+00 2.433683218004064397e+00 2.806788121554993354e-01 4.069577517539427092e+00 1.952767140123341960e+00 4.585867666368383944e+00 -6.676384688078217167e+00 4.891507653426623747e+00 1.122765493822303817e+01 -8.952142912110004902e-01 6.458789319758303726e+00 -3.665154985598337856e+00 3.581659726105217878e+00 5.011029103916439631e+00 1.771471374823213374e+00 9.738606504176762213e-01 8.843059796264913786e+00 -2.730560409280626266e-01 -8.839709558128066025e-01 -7.865032734241921730e+00 -1.071608495174792147e-01 -3.732335296467716446e-01 -2.008504644875999112e+00 -1.497818036682946330e-01 -6.692182603978698019e-01 -3.035139631319993647e+00 -1.687598421705509555e-01 1.458727067875562888e-01 6.822081725549321574e-01 -6.405996320011734246e-01 1.729449394400571771e-01 9.098842707492773130e+00 -2.793424587379468527e+00 1.767523871135807667e+00 7.414682140173673552e+00 3.359129253456129227e+00 2.982732779569194470e+00 -4.902340000388468511e+00 5.722707485355313040e+00 -6.804395932864292007e+00 -1.515886452340056501e+01 8.417275675748504327e+00 -6.367675024027634301e+00 3.384359761228321162e+00 -7.793631250540836497e+00 -5.471145382098616672e+00 6.134090019978698294e+00 0.000000000000000000e+00 0.000000000000000000e+00 0.000000000000000000e+00 1.185946908607706490e-15 4.819787231263375409e-16 0.000000000000000000e+00 -1.307565328502270872e-16 2.069302222665914718e-15 0.000000000000000000e+00 8.197483984048029983e-16 -6.514982150534430207e-16 -6.044938162941316307e-16 0.000000000000000000e+00 0.000000000000000000e+00 0.000000000000000000e+00 0.000000000000000000e+00 -1.163178006699655512e-15 -6.166221135950177865e-16 0.000000000000000000e+00 -8.366519764939607926e-16 2.791705157521290411e-15 8.197483984048029983e-16 -6.514982150534430207e-16 -6.044938162941316307e-16 0.000000000000000000e+00 7.494699101317143499e-17 -4.422012327173511986e-15 0.000000000000000000e+00 5.983475870429669172e-16 -4.254048915248539572e-16 0.000000000000000000e+00 -2.377361072332909640e-16 3.104111750314510113e-15 8.197483984048029983e-16 -6.514982150534430207e-16 -6.044938162941316307e-16 0.000000000000000000e+00 0.000000000000000000e+00 0.000000000000000000e+00 0.000000000000000000e+00 -1.107626340520901898e-15 -3.997487507553168293e-16 0.000000000000000000e+00 -1.134742051023954324e-16 6.730889848569464282e-16 8.197483984048029983e-16 -6.514982150534430207e-16 -6.044938162941316307e-16 0.000000000000000000e+00 0.000000000000000000e+00 0.000000000000000000e+00 0.000000000000000000e+00 2.664314229693758503e-16 -2.463660530833500360e-15 0.000000000000000000e+00 1.838673443825471041e-15 4.591956409290416095e-15 3.841875758336416702e+00 2.494598534287663927e-01 -3.765978463121473663e+00 9.801249748386116067e+00 5.002898568861755102e+00 -1.114898368771409842e+01 3.912590051212545994e+00 2.424482256553843751e+00 2.224803052524880442e+01 -3.840425883652949679e+00 8.240725607393425411e-01 3.791394166885895256e+00 0.000000000000000000e+00 0.000000000000000000e+00 0.000000000000000000e+00 -5.753316834070991401e-16 -1.021585409747102769e-15 0.000000000000000000e+00 -4.131082176980260738e-16 -1.351545144237983961e-15 0.000000000000000000e+00 1.311534925128403220e-16 9.007875556334961663e-16 5.099072248488409813e-16 0.000000000000000000e+00 0.000000000000000000e+00 0.000000000000000000e+00 0.000000000000000000e+00 1.089405897925610806e-15 3.640210510495272758e-16 0.000000000000000000e+00 3.748235585923460937e-16 -4.547270161813756293e-15 1.311534925128403220e-16 9.007875556334961663e-16 5.099072248488409813e-16 0.000000000000000000e+00 -8.758506394752599871e-16 -9.676723105635372655e-17 0.000000000000000000e+00 9.226882047451682847e-16 -5.142114486155577521e-16 0.000000000000000000e+00 1.577311766200828982e-15 -3.394982080947738495e-15 1.311534925128403220e-16 9.007875556334961663e-16 5.099072248488409813e-16 0.000000000000000000e+00 0.000000000000000000e+00 0.000000000000000000e+00 0.000000000000000000e+00 1.489742733894645660e-15 -1.709531679105805541e-15 0.000000000000000000e+00 1.390927495114206509e-15 -3.871722134183911698e-15 1.311534925128403220e-16 9.007875556334961663e-16 5.099072248488409813e-16 0.000000000000000000e+00 0.000000000000000000e+00 0.000000000000000000e+00 0.000000000000000000e+00 9.319080072401803823e-17 -2.918903565462230197e-15 0.000000000000000000e+00 -8.501413656302969012e-17 -1.128275449530035224e-15
